<?xml version="1.0" encoding="utf-8"?>
<!-- Generator: Adobe Illustrator 16.0.0, SVG Export Plug-In . SVG Version: 6.00 Build 0)  -->
<!DOCTYPE svg PUBLIC "-//W3C//DTD SVG 1.1//EN" "http://www.w3.org/Graphics/SVG/1.1/DTD/svg11.dtd">
<svg version="1.1" id="Layer_1" xmlns="http://www.w3.org/2000/svg" xmlns:xlink="http://www.w3.org/1999/xlink" x="0px" y="0px"
	 width="300px" height="225px" viewBox="0 0 300 225" enable-background="new 0 0 300 225" xml:space="preserve">
<g>
	<path fill="#E6E6E6" d="M148.4,57.55c14.333,0,25.95,11.618,25.95,25.95s-11.617,25.95-25.95,25.95
		c-14.332,0-25.95-11.618-25.95-25.95S134.068,57.55,148.4,57.55z M76.5,117.55c14.332,0,25.95,11.618,25.95,25.95
		s-11.618,25.95-25.95,25.95s-25.95-11.618-25.95-25.95S62.168,117.55,76.5,117.55z M220.301,117.3
		c14.332,0,25.95,11.618,25.95,25.95s-11.618,25.95-25.95,25.95s-25.949-11.618-25.949-25.95S205.969,117.3,220.301,117.3z"/>
	<path fill="#3E4452" d="M146.839,84.89c-2.112-0.84-3.696-2.856-3.696-5.329c0-3.096,2.616-5.544,5.688-5.544
		c3.071,0,5.712,2.448,5.712,5.544c0,1.249-0.456,2.4-1.08,3.192l-3.912,4.921h4.969v3.576h-12.746L146.839,84.89z M150.68,79.561
		c0-1.056-0.721-1.968-1.849-1.968s-1.848,0.912-1.848,1.968c0,1.057,0.72,1.992,1.848,1.992S150.68,80.617,150.68,79.561z
		 M74.818,137.881l3.864-3.816v17.187h-3.864V137.881z M214.146,149.292l2.688-2.521c0.528,0.769,1.2,1.344,2.304,1.344
		c1.512,0,2.424-0.936,2.424-2.424c0.024-1.512-0.936-2.424-2.424-2.424h-1.752l2.4-5.232h-4.824v-3.576h10.441l-2.736,5.952
		c1.729,1.008,2.784,2.856,2.784,5.28c0,3.647-2.448,6-6.048,6C217.219,151.691,215.323,150.78,214.146,149.292z"/>
	<path fill="none" stroke="#F1736A" stroke-miterlimit="10" d="M76.5,111.333c0.245-12.432,18.875-29.331,38.082-29.665
		 M219.6,110.252c-1.272-12.546-20.067-28.879-39.1-28.585"/>
	<path fill="#F1736A" d="M111.432,85.927l-0.71-0.706l3.477-3.495l-3.741-3.213l0.653-0.759l4.555,3.914L111.432,85.927z
		 M222.992,106.333l-0.833-0.555l-2.729,4.106l-3.896-3.023l-0.612,0.792l4.746,3.68L222.992,106.333z"/>
</g>
</svg>
