<?xml version="1.0" encoding="utf-8"?>
<!-- Generator: Adobe Illustrator 16.0.0, SVG Export Plug-In . SVG Version: 6.00 Build 0)  -->
<!DOCTYPE svg PUBLIC "-//W3C//DTD SVG 1.1//EN" "http://www.w3.org/Graphics/SVG/1.1/DTD/svg11.dtd">
<svg version="1.1" id="Layer_1" xmlns="http://www.w3.org/2000/svg" xmlns:xlink="http://www.w3.org/1999/xlink" x="0px" y="0px"
	 width="300px" height="225px" viewBox="0 0 300 225" enable-background="new 0 0 300 225" xml:space="preserve">
<g id="Illustration_2_">
	<path fill="#E6E6E6" d="M148.822,74.727c-0.875-0.996-1.774-1.979-2.725-2.929c-23.899-23.9-62.65-23.9-86.55,0
		c-21.883,21.885-23.731,56.216-5.536,80.203l-7.191,19.074l20.048-6.466c23.932,17.414,57.64,15.328,79.229-6.262
		c0.951-0.951,1.85-1.934,2.725-2.93C128.573,132.376,128.572,97.77,148.822,74.727z M238.098,71.798
		c-23.9-23.9-62.652-23.9-86.551,0c-0.951,0.95-1.85,1.933-2.725,2.929c20.25,23.043,20.249,57.649,0,80.692
		c0.875,0.996,1.774,1.978,2.725,2.929c21.587,21.59,55.295,23.678,79.229,6.262l20.048,6.467l-7.19-19.074
		C261.827,128.014,259.98,93.683,238.098,71.798z"/>
	<path fill="#F1736A" d="M148.822,74.727c-20.25,23.043-20.249,57.649,0,80.692C169.07,132.376,169.072,97.77,148.822,74.727z"/>
	<path fill="#3E4452" d="M194.159,94l20.159,41.355h-9.678l-2.938-6.338h-15.09l-2.938,6.338H174L194.159,94z M198.018,121.531
		l-3.857-8.525l-3.859,8.525H198.018z M118.602,115.092c0-11.52-9.389-20.909-20.908-20.909s-20.907,9.39-20.907,20.909
		c0,11.52,9.387,20.908,20.906,20.908c5.012,0,9.619-1.729,13.248-4.725l5.817,4.725l5.241-6.452l-5.817-4.665
		C117.737,121.945,118.602,118.604,118.602,115.092z M108.752,118.834l-5.99-4.837l-5.241,6.394l6.221,5.067
		c-1.728,1.097-3.802,1.671-6.048,1.671c-6.624,0-11.634-5.472-11.634-12.037c0-6.566,5.01-12.039,11.634-12.039
		s11.635,5.473,11.635,12.039C109.328,116.416,109.098,117.684,108.752,118.834z"/>
	<path fill="#FFFFFF" d="M139.638,120.963c0-3.744,2.847-6.88,6.496-7.296l-4.096-8.384h13.151v4.384h-5.504l8.959,18.335h-5.504
		l-1.056-2.176c-1.344,1.855-3.167,2.432-5.151,2.432C142.902,128.258,139.638,124.994,139.638,120.963z M149.397,120.963
		c0-1.376-1.12-2.561-2.464-2.561c-1.344,0-2.464,1.185-2.464,2.561c0,1.375,1.12,2.561,2.464,2.561
		C148.277,123.523,149.397,122.338,149.397,120.963z"/>
</g>
</svg>
