<?xml version="1.0" encoding="utf-8"?>
<!-- Generator: Adobe Illustrator 16.0.0, SVG Export Plug-In . SVG Version: 6.00 Build 0)  -->
<!DOCTYPE svg PUBLIC "-//W3C//DTD SVG 1.1//EN" "http://www.w3.org/Graphics/SVG/1.1/DTD/svg11.dtd">
<svg version="1.1" id="Layer_1" xmlns="http://www.w3.org/2000/svg" xmlns:xlink="http://www.w3.org/1999/xlink" x="0px" y="0px"
	 width="300px" height="225px" viewBox="0 0 300 225" enable-background="new 0 0 300 225" xml:space="preserve">
<g>
	
		<rect x="126.704" y="82.098" transform="matrix(-0.9397 -0.342 0.342 -0.9397 271.1048 307.9937)" fill="#FCE3E1" width="72" height="95.998"/>
	
		<rect x="120.703" y="73.693" transform="matrix(-0.9848 -0.1736 0.1736 -0.9848 289.9001 268.7398)" fill="#F9C7C3" width="71.998" height="95.997"/>
	<rect x="112" y="65" fill="#F7ABA6" width="72" height="96"/>
	
		<rect x="102.704" y="59.294" transform="matrix(-0.9848 0.1737 -0.1737 -0.9848 293.9366 188.863)" fill="#F48F88" width="72" height="96"/>
	
		<rect x="94.298" y="56.904" transform="matrix(-0.9397 0.342 -0.342 -0.9397 288.6161 158.9197)" fill="#F1736A" width="72" height="96"/>
	<g>
		<path fill="#FFFFFF" d="M124.332,104.196l4.533-1.65c3.586-1.306,5.719-4.075,4.266-8.067c-1.452-3.991-4.892-4.808-7.395-3.897
			c-2.503,0.912-4.409,3.675-2.956,7.667l-10.622,3.864c-3.176-8.727,0.984-18.134,9.983-21.409
			c8.998-3.273,18.435,1.183,21.61,9.911c3.177,8.728-1.212,18.14-11.292,21.809l-4.533,1.649L124.332,104.196z M128.699,125.667
			c-0.838-2.302-0.561-4.699,0.639-6.668l9.2-3.349c2.117,0.762,3.937,2.396,4.775,4.697c1.477,4.059-0.588,8.488-4.647,9.967
			C134.606,131.791,130.177,129.727,128.699,125.667z"/>
	</g>
</g>
</svg>
