<?xml version="1.0" encoding="utf-8"?>
<!-- Generator: Adobe Illustrator 17.0.0, SVG Export Plug-In . SVG Version: 6.00 Build 0)  -->
<!DOCTYPE svg PUBLIC "-//W3C//DTD SVG 1.1//EN" "http://www.w3.org/Graphics/SVG/1.1/DTD/svg11.dtd">
<svg version="1.1" id="Layer_1" xmlns="http://www.w3.org/2000/svg" xmlns:xlink="http://www.w3.org/1999/xlink" x="0px" y="0px"
	 width="400px" height="400px" viewBox="0 0 400 400" enable-background="new 0 0 400 400" xml:space="preserve">
<linearGradient id="SVGID_1_" gradientUnits="userSpaceOnUse" x1="351.1091" y1="-429.9447" x2="39.8189" y2="868.3635">
	<stop  offset="0" style="stop-color:#00A0C6"/>
	<stop  offset="1" style="stop-color:#13007C"/>
</linearGradient>
<rect x="0" y="0" fill="url(#SVGID_1_)" width="400.167" height="399.887"/>
<g>
	<path fill="#FFFFFF" d="M106.5,263.114h5.785l6.134,33.153h-5.086l-0.912-5.939h-6.056l-0.874,5.939h-5.105L106.5,263.114z
		 M111.839,286.543l-2.33-16.519h-0.213l-2.349,16.519H111.839z"/>
	<path fill="#FFFFFF" d="M130.124,263.114h5.027v33.153h-5.027V263.114z"/>
	<path fill="#FFFFFF" d="M157.822,263.114h5.221c0.79,0,1.608,0.022,2.456,0.068c0.848,0.045,1.676,0.184,2.485,0.417
		c0.809,0.232,1.572,0.592,2.29,1.077c0.718,0.485,1.349,1.165,1.893,2.038c0.543,0.874,0.974,1.974,1.291,3.3
		c0.317,1.327,0.476,2.947,0.476,4.862v9.628c0,1.915-0.159,3.539-0.476,4.872c-0.317,1.333-0.748,2.433-1.291,3.3
		s-1.174,1.543-1.893,2.028c-0.718,0.485-1.481,0.845-2.29,1.077c-0.809,0.233-1.637,0.372-2.485,0.417
		c-0.848,0.046-1.666,0.068-2.456,0.068h-5.221V263.114z M164.131,292.754c0.905,0,1.653-0.116,2.242-0.349
		c0.589-0.233,1.055-0.644,1.397-1.233c0.343-0.588,0.579-1.391,0.708-2.406s0.194-2.301,0.194-3.854v-10.287
		c0-1.553-0.065-2.837-0.194-3.854c-0.129-1.016-0.366-1.817-0.708-2.406s-0.809-1-1.397-1.233
		c-0.589-0.232-1.336-0.349-2.242-0.349h-1.281v25.971H164.131z"/>
	<path fill="#FFFFFF" d="M184.551,296.559c-1.152,0-2.171-0.213-3.057-0.641c-0.887-0.427-1.634-1.093-2.242-1.999
		c-0.608-0.905-1.067-2.067-1.378-3.484s-0.466-3.122-0.466-5.114v-5.047c0-1.695,0.126-3.147,0.378-4.357s0.583-2.226,0.99-3.048
		c0.408-0.821,0.88-1.472,1.417-1.951c0.537-0.479,1.09-0.844,1.66-1.097c0.569-0.252,1.136-0.414,1.699-0.485
		c0.563-0.07,1.083-0.106,1.563-0.106c0.88,0,1.728,0.133,2.542,0.398c0.815,0.265,1.534,0.718,2.155,1.358s1.116,1.498,1.485,2.572
		c0.369,1.074,0.553,2.413,0.553,4.018c0,0.544-0.016,1.094-0.048,1.649c-0.032,0.557-0.075,1.104-0.126,1.641
		c-0.053,0.537-0.12,1.058-0.204,1.563s-0.172,0.971-0.262,1.397h-8.871v2.718c0,1.164,0.045,2.145,0.136,2.94
		s0.243,1.437,0.456,1.922c0.214,0.485,0.505,0.835,0.874,1.048c0.369,0.214,0.832,0.32,1.388,0.32c0.297,0,0.588-0.061,0.874-0.185
		c0.284-0.122,0.534-0.326,0.747-0.611c0.213-0.284,0.385-0.663,0.514-1.135c0.129-0.473,0.194-1.059,0.194-1.757v-0.835h4.096
		v1.028c0,2.537-0.604,4.384-1.815,5.542C188.591,295.979,186.841,296.559,184.551,296.559z M187.268,280.525
		c0.013-0.142,0.026-0.333,0.039-0.572c0.013-0.239,0.022-0.488,0.029-0.747s0.01-0.515,0.01-0.768c0-0.252,0-0.469,0-0.649
		c0-1.76-0.207-3.028-0.621-3.805s-1.029-1.165-1.844-1.165c-0.427,0-0.803,0.101-1.126,0.301c-0.324,0.201-0.589,0.537-0.796,1.01
		s-0.362,1.097-0.466,1.873s-0.155,1.74-0.155,2.893v1.63H187.268z"/>
	<path fill="#FFFFFF" d="M193.79,269.539h4.892l2.581,14.209l0.641,5.687h0.155l0.738-5.687l2.562-14.209h4.736L204,296.268h-4.192
		L193.79,269.539z"/>
	<path fill="#FFFFFF" d="M219.412,296.559c-1.152,0-2.171-0.213-3.058-0.641c-0.886-0.427-1.634-1.093-2.241-1.999
		c-0.608-0.905-1.068-2.067-1.379-3.484s-0.466-3.122-0.466-5.114v-5.047c0-1.695,0.127-3.147,0.379-4.357s0.582-2.226,0.99-3.048
		c0.407-0.821,0.88-1.472,1.417-1.951c0.536-0.479,1.09-0.844,1.659-1.097c0.569-0.252,1.136-0.414,1.698-0.485
		c0.563-0.07,1.084-0.106,1.563-0.106c0.88,0,1.728,0.133,2.543,0.398c0.815,0.265,1.533,0.718,2.154,1.358s1.116,1.498,1.485,2.572
		s0.553,2.413,0.553,4.018c0,0.544-0.016,1.094-0.048,1.649c-0.032,0.557-0.075,1.104-0.126,1.641
		c-0.053,0.537-0.12,1.058-0.204,1.563s-0.172,0.971-0.262,1.397h-8.871v2.718c0,1.164,0.045,2.145,0.136,2.94
		s0.243,1.437,0.456,1.922c0.214,0.485,0.505,0.835,0.874,1.048c0.368,0.214,0.831,0.32,1.388,0.32c0.298,0,0.589-0.061,0.873-0.185
		c0.285-0.122,0.534-0.326,0.748-0.611c0.213-0.284,0.385-0.663,0.514-1.135c0.13-0.473,0.194-1.059,0.194-1.757v-0.835h4.096v1.028
		c0,2.537-0.605,4.384-1.815,5.542S221.702,296.559,219.412,296.559z M222.13,280.525c0.013-0.142,0.025-0.333,0.038-0.572
		s0.022-0.488,0.029-0.747s0.01-0.515,0.01-0.768c0-0.252,0-0.469,0-0.649c0-1.76-0.207-3.028-0.621-3.805s-1.028-1.165-1.844-1.165
		c-0.427,0-0.803,0.101-1.126,0.301c-0.323,0.201-0.589,0.537-0.796,1.01s-0.362,1.097-0.466,1.873s-0.155,1.74-0.155,2.893v1.63
		H222.13z"/>
	<path fill="#FFFFFF" d="M230.941,260.96h4.911v35.308h-4.911V260.96z"/>
	<path fill="#FFFFFF" d="M247.713,296.559c-0.569,0-1.148-0.045-1.737-0.136s-1.158-0.278-1.708-0.563
		c-0.55-0.285-1.067-0.692-1.553-1.224c-0.485-0.53-0.909-1.229-1.271-2.096s-0.647-1.935-0.854-3.203
		c-0.207-1.268-0.311-2.782-0.311-4.542v-4.192c0-1.734,0.107-3.219,0.32-4.455c0.214-1.235,0.505-2.274,0.874-3.115
		c0.368-0.841,0.799-1.511,1.291-2.009c0.491-0.498,1.012-0.88,1.563-1.146c0.55-0.265,1.116-0.439,1.698-0.524
		c0.582-0.084,1.151-0.126,1.708-0.126c0.53,0,1.08,0.039,1.649,0.116c0.569,0.078,1.126,0.243,1.67,0.495
		c0.543,0.253,1.058,0.628,1.543,1.126s0.912,1.168,1.281,2.009c0.368,0.842,0.66,1.887,0.873,3.135
		c0.214,1.249,0.32,2.747,0.32,4.494v4.192c0,1.734-0.11,3.229-0.33,4.483c-0.22,1.256-0.518,2.317-0.893,3.184
		c-0.375,0.867-0.809,1.569-1.301,2.106c-0.491,0.537-1.009,0.954-1.553,1.252c-0.543,0.298-1.097,0.495-1.659,0.592
		C248.771,296.51,248.23,296.559,247.713,296.559z M247.752,292.773c0.439,0,0.812-0.113,1.116-0.34
		c0.304-0.226,0.55-0.598,0.737-1.115s0.323-1.2,0.407-2.048s0.127-1.899,0.127-3.154v-6.58c0-1.256-0.043-2.311-0.127-3.164
		c-0.084-0.854-0.22-1.544-0.407-2.067c-0.188-0.524-0.434-0.902-0.737-1.136c-0.305-0.232-0.677-0.35-1.116-0.35
		c-0.466,0-0.857,0.117-1.175,0.35c-0.317,0.233-0.579,0.611-0.786,1.136c-0.207,0.523-0.355,1.213-0.446,2.067
		c-0.091,0.854-0.136,1.908-0.136,3.164v6.58c0,1.255,0.045,2.307,0.136,3.154s0.239,1.53,0.446,2.048s0.469,0.89,0.786,1.115
		C246.895,292.66,247.286,292.773,247.752,292.773z"/>
	<path fill="#FFFFFF" d="M264.328,297.781v7.124h-4.911v-35.366h3.843l0.447,2.814c0.22-0.362,0.481-0.73,0.786-1.106
		c0.304-0.375,0.659-0.708,1.067-0.999c0.407-0.292,0.866-0.531,1.378-0.719c0.511-0.188,1.084-0.281,1.718-0.281
		c0.271,0,0.599,0.026,0.98,0.077c0.382,0.053,0.776,0.182,1.184,0.389c0.408,0.207,0.815,0.515,1.224,0.922
		c0.407,0.408,0.77,0.968,1.087,1.679c0.316,0.712,0.575,1.599,0.776,2.66c0.2,1.061,0.301,2.349,0.301,3.862v8.094
		c0,1.515-0.101,2.802-0.301,3.863c-0.201,1.062-0.463,1.947-0.786,2.659c-0.324,0.712-0.692,1.274-1.106,1.688
		s-0.835,0.725-1.262,0.932c-0.428,0.207-0.842,0.34-1.242,0.398c-0.401,0.058-0.751,0.087-1.049,0.087
		c-1.035,0-1.898-0.2-2.591-0.602s-1.259-0.887-1.698-1.456L264.328,297.781z M264.328,290.813c0.104,0.259,0.229,0.505,0.378,0.737
		c0.148,0.233,0.323,0.44,0.524,0.621c0.2,0.182,0.427,0.327,0.68,0.437c0.252,0.11,0.546,0.165,0.883,0.165
		c0.362,0,0.692-0.067,0.99-0.203c0.297-0.137,0.556-0.382,0.776-0.738c0.22-0.355,0.391-0.851,0.514-1.484s0.185-1.449,0.185-2.446
		v-10.229c0-0.996-0.062-1.808-0.185-2.436s-0.291-1.123-0.504-1.485c-0.214-0.361-0.47-0.607-0.767-0.737
		c-0.298-0.129-0.628-0.194-0.99-0.194c-0.621,0-1.129,0.185-1.523,0.554c-0.396,0.368-0.716,0.799-0.961,1.291V290.813z"/>
	<path fill="#FFFFFF" d="M285.078,296.559c-1.152,0-2.171-0.213-3.058-0.641c-0.886-0.427-1.634-1.093-2.241-1.999
		c-0.608-0.905-1.068-2.067-1.379-3.484s-0.466-3.122-0.466-5.114v-5.047c0-1.695,0.127-3.147,0.379-4.357s0.582-2.226,0.99-3.048
		c0.407-0.821,0.88-1.472,1.417-1.951c0.536-0.479,1.09-0.844,1.659-1.097c0.569-0.252,1.136-0.414,1.698-0.485
		c0.563-0.07,1.084-0.106,1.563-0.106c0.88,0,1.728,0.133,2.543,0.398c0.815,0.265,1.533,0.718,2.154,1.358s1.116,1.498,1.485,2.572
		s0.553,2.413,0.553,4.018c0,0.544-0.016,1.094-0.048,1.649c-0.032,0.557-0.075,1.104-0.126,1.641
		c-0.053,0.537-0.12,1.058-0.204,1.563s-0.172,0.971-0.262,1.397h-8.871v2.718c0,1.164,0.045,2.145,0.136,2.94
		s0.243,1.437,0.456,1.922c0.214,0.485,0.505,0.835,0.874,1.048c0.368,0.214,0.831,0.32,1.388,0.32c0.298,0,0.589-0.061,0.873-0.185
		c0.285-0.122,0.534-0.326,0.748-0.611c0.213-0.284,0.385-0.663,0.514-1.135c0.13-0.473,0.194-1.059,0.194-1.757v-0.835h4.096v1.028
		c0,2.537-0.605,4.384-1.815,5.542S287.368,296.559,285.078,296.559z M287.796,280.525c0.013-0.142,0.025-0.333,0.038-0.572
		s0.022-0.488,0.029-0.747s0.01-0.515,0.01-0.768c0-0.252,0-0.469,0-0.649c0-1.76-0.207-3.028-0.621-3.805s-1.028-1.165-1.844-1.165
		c-0.427,0-0.803,0.101-1.126,0.301c-0.323,0.201-0.589,0.537-0.796,1.01s-0.362,1.097-0.466,1.873s-0.155,1.74-0.155,2.893v1.63
		H287.796z"/>
	<path fill="#FFFFFF" d="M296.53,269.539h3.591l0.427,2.718c0.544-1.01,1.168-1.767,1.873-2.271
		c0.706-0.504,1.427-0.757,2.165-0.757c1.41,0,2.452,0.434,3.125,1.301s1.009,2.167,1.009,3.901c0,0.22-0.016,0.482-0.048,0.786
		c-0.033,0.305-0.078,0.621-0.136,0.951c-0.059,0.33-0.13,0.66-0.214,0.99s-0.172,0.631-0.262,0.902h-3.417v-2.484
		c0-0.544-0.035-0.99-0.106-1.34s-0.165-0.631-0.281-0.844c-0.116-0.214-0.253-0.362-0.408-0.447
		c-0.155-0.084-0.323-0.126-0.504-0.126c-0.389,0-0.748,0.126-1.078,0.379c-0.329,0.252-0.604,0.604-0.824,1.058v22.012h-4.911
		V269.539z"/>
</g>
<g>
	<path fill="#FFFFFF" d="M110.352,346.825c-0.592,0-1.231-0.049-1.918-0.145c-0.688-0.097-1.375-0.3-2.063-0.61
		c-0.688-0.31-1.346-0.75-1.974-1.319c-0.628-0.568-1.183-1.319-1.664-2.251s-0.865-2.081-1.153-3.448
		c-0.288-1.368-0.432-2.998-0.432-4.891v-13.418c0-1.907,0.147-3.538,0.443-4.891s0.688-2.491,1.176-3.416
		c0.488-0.924,1.049-1.659,1.686-2.206c0.635-0.547,1.293-0.965,1.974-1.253c0.68-0.289,1.356-0.478,2.029-0.566
		c0.673-0.088,1.297-0.133,1.874-0.133c1.508,0,2.769,0.211,3.782,0.632c1.013,0.422,1.826,0.998,2.439,1.73
		c0.613,0.731,1.05,1.586,1.309,2.562c0.258,0.976,0.388,2.011,0.388,3.105c0,0.813-0.041,1.563-0.122,2.251
		c-0.082,0.688-0.204,1.445-0.366,2.273h-4.658v-1.93c0-2.085-0.229-3.645-0.688-4.68c-0.458-1.035-1.131-1.553-2.018-1.553
		c-0.533,0-0.998,0.104-1.397,0.311s-0.732,0.559-0.998,1.054s-0.47,1.149-0.61,1.963c-0.141,0.813-0.211,1.826-0.211,3.038v17.299
		c0,1.184,0.056,2.167,0.167,2.95c0.111,0.784,0.292,1.412,0.543,1.885c0.251,0.474,0.58,0.81,0.987,1.01
		c0.407,0.199,0.898,0.299,1.475,0.299c0.369,0,0.724-0.085,1.064-0.255c0.34-0.17,0.639-0.436,0.898-0.798
		c0.258-0.362,0.465-0.821,0.621-1.376c0.155-0.554,0.233-1.208,0.233-1.962v-3.704h5.256v3.504c0,3.046-0.695,5.294-2.084,6.742
		C114.95,346.078,112.954,346.81,110.352,346.825z"/>
	<path fill="#FFFFFF" d="M131.333,346.825c-0.606,0-1.264-0.049-1.974-0.145c-0.709-0.097-1.412-0.3-2.107-0.61
		c-0.695-0.31-1.364-0.75-2.007-1.319c-0.644-0.568-1.213-1.319-1.708-2.251c-0.496-0.932-0.891-2.081-1.187-3.448
		c-0.296-1.368-0.443-2.998-0.443-4.891v-13.418c0-1.907,0.151-3.538,0.455-4.891c0.303-1.353,0.706-2.491,1.208-3.416
		c0.502-0.924,1.076-1.659,1.719-2.206c0.643-0.547,1.315-0.965,2.018-1.253c0.702-0.289,1.401-0.478,2.096-0.566
		c0.695-0.088,1.338-0.133,1.93-0.133c0.562,0,1.187,0.041,1.874,0.122s1.375,0.259,2.063,0.532s1.356,0.681,2.007,1.22
		c0.65,0.54,1.227,1.272,1.73,2.196c0.502,0.924,0.905,2.07,1.208,3.438s0.455,3.02,0.455,4.957v13.418
		c0,1.878-0.155,3.493-0.466,4.846s-0.717,2.499-1.22,3.438c-0.502,0.939-1.083,1.693-1.741,2.263
		c-0.658,0.569-1.331,1.013-2.019,1.33c-0.688,0.318-1.372,0.529-2.051,0.633C132.493,346.772,131.879,346.825,131.333,346.825z
		 M131.333,342.5c0.562,0,1.054-0.096,1.475-0.288s0.769-0.524,1.042-0.998s0.48-1.098,0.621-1.874s0.211-1.756,0.211-2.938v-17.233
		c0-1.212-0.07-2.225-0.211-3.038s-0.348-1.468-0.621-1.963s-0.621-0.847-1.042-1.054s-0.914-0.311-1.475-0.311
		c-0.577,0-1.08,0.104-1.508,0.311s-0.784,0.559-1.064,1.054c-0.281,0.495-0.492,1.149-0.632,1.963
		c-0.141,0.813-0.211,1.826-0.211,3.038v17.233c0,1.183,0.07,2.162,0.211,2.938c0.14,0.776,0.351,1.4,0.632,1.874
		c0.281,0.474,0.636,0.806,1.064,0.998S130.756,342.5,131.333,342.5z"/>
	<path fill="#FFFFFF" d="M146.104,308.611h7.496l3.637,14.66c0.384,1.626,0.688,3.175,0.91,4.646
		c0.222,1.471,0.436,2.857,0.643,4.158h0.177c0.207-1.301,0.421-2.688,0.643-4.158c0.222-1.472,0.525-3.021,0.91-4.646l3.748-14.66
		h7.341v37.881h-5.368v-12.531c0-1.922,0.019-3.77,0.056-5.544c0.037-1.774,0.085-3.404,0.144-4.891s0.125-2.798,0.2-3.937
		c0.074-1.139,0.141-2.041,0.2-2.706h-0.421l-5.722,24.729h-3.637l-5.767-24.729h-0.421c0.059,0.665,0.125,1.567,0.2,2.706
		c0.074,1.139,0.14,2.45,0.2,3.937c0.059,1.486,0.107,3.116,0.144,4.891c0.037,1.774,0.056,3.622,0.056,5.544v12.531h-5.367V308.611
		z"/>
	<path fill="#FFFFFF" d="M178.085,308.611h7.496l3.637,14.66c0.384,1.626,0.688,3.175,0.91,4.646
		c0.222,1.471,0.436,2.857,0.643,4.158h0.177c0.207-1.301,0.421-2.688,0.644-4.158c0.222-1.472,0.524-3.021,0.909-4.646l3.748-14.66
		h7.341v37.881h-5.367v-12.531c0-1.922,0.019-3.77,0.056-5.544s0.085-3.404,0.145-4.891c0.059-1.486,0.125-2.798,0.199-3.937
		s0.141-2.041,0.199-2.706H198.4l-5.722,24.729h-3.638l-5.767-24.729h-0.421c0.059,0.665,0.125,1.567,0.2,2.706
		c0.074,1.139,0.14,2.45,0.2,3.937c0.059,1.486,0.107,3.116,0.144,4.891c0.037,1.774,0.056,3.622,0.056,5.544v12.531h-5.367V308.611
		z"/>
	<path fill="#FFFFFF" d="M209.934,308.611h5.788v27.768c0,1.183,0.059,2.166,0.178,2.949c0.118,0.784,0.307,1.409,0.565,1.874
		c0.259,0.466,0.591,0.799,0.998,0.998c0.406,0.2,0.891,0.3,1.452,0.3c0.563,0,1.054-0.1,1.476-0.3
		c0.421-0.199,0.769-0.532,1.042-0.998c0.273-0.465,0.48-1.09,0.621-1.874c0.141-0.783,0.211-1.767,0.211-2.949v-27.768h5.722
		v26.237c0,1.849-0.147,3.431-0.443,4.746c-0.296,1.316-0.688,2.417-1.176,3.305c-0.487,0.887-1.046,1.59-1.674,2.106
		c-0.629,0.519-1.279,0.913-1.952,1.187c-0.673,0.274-1.342,0.447-2.007,0.521c-0.666,0.074-1.272,0.111-1.819,0.111
		s-1.149-0.037-1.808-0.111c-0.657-0.074-1.319-0.247-1.984-0.521c-0.665-0.273-1.309-0.668-1.93-1.187
		c-0.621-0.517-1.176-1.22-1.663-2.106c-0.488-0.888-0.876-1.985-1.165-3.294c-0.288-1.309-0.432-2.894-0.432-4.757V308.611z"/>
	<path fill="#FFFFFF" d="M234.33,308.611h4.657l9.182,25.35h0.134c-0.045-0.591-0.104-1.249-0.178-1.974s-0.141-1.549-0.199-2.473
		c-0.06-0.924-0.111-1.971-0.155-3.139c-0.045-1.168-0.067-2.483-0.067-3.947v-13.817h5.146v37.881h-4.701l-9.138-24.685h-0.178
		c0.045,0.665,0.104,1.386,0.178,2.162c0.073,0.776,0.14,1.689,0.199,2.739c0.059,1.05,0.111,2.273,0.155,3.671
		c0.045,1.396,0.066,3.057,0.066,4.979v11.134h-5.101V308.611z"/>
	<path fill="#FFFFFF" d="M259.325,308.611h5.744v37.881h-5.744V308.611z"/>
	<path fill="#FFFFFF" d="M275.05,313.136h-6.099v-4.524h17.92v4.524h-6.077v33.356h-5.744V313.136z"/>
	<path fill="#FFFFFF" d="M295.254,333.873l-7.629-25.262h5.788l4.636,18.12h0.266l4.591-18.12h5.767l-7.674,25.262v12.619h-5.744
		V333.873z"/>
</g>
<rect x="122.058" y="292.557" fill="#FFFFFF" width="3.781" height="3.781"/>
<rect x="141.615" y="292.557" fill="#FFFFFF" width="3.781" height="3.781"/>
<polygon fill="#FFFFFF" points="201.902,220.743 201.908,220.743 201.908,249.4 189.396,237.059 176.982,249.433 176.982,194.877 
	201.902,194.877 "/>
<g>
	<rect x="197.784" y="204.241" fill="#FFFFFF" width="65.918" height="11.223"/>
</g>
<g>
	<path fill="#FFFFFF" d="M263.704,127.233v61.414H152.937c-0.678,0.58-1.858,2.56-1.858,7.261c0,1.853,0.221,3.475,0.659,4.825
		c0.693,2.149,1.762,3.112,2.385,3.508h15.298v11.224h-17.135l-0.668-0.165c-0.731-0.188-7.083-2.023-10.149-9.912
		c-1.07-2.747-1.612-5.937-1.612-9.48c0-1.835,0.133-3.574,0.395-5.172c1.149-6.98,4.549-10.31,7.202-11.875
		c1.777-1.046,3.251-1.321,3.661-1.38l0.4-0.057h100.97v-41.9c1.467-0.705,2.891-1.508,4.258-2.403
		C259.296,131.447,261.636,129.465,263.704,127.233z"/>
</g>
<g>
	<path fill="#FFFFFF" d="M263.7,39.05v37.14l-2.22-2.03c-2.71-2.47-5.72-4.51-9-6.09V50.28H151.05v21.45
		c-0.68,0.79-1.33,1.6-1.96,2.44c-2.41,3.26-4.29,6.85-5.59,10.67l-2.76,8.1h0.18l-0.24,0.24l-0.36,0.59
		c-0.15,0.23-0.29,0.47-0.44,0.7V42.85l-0.02-3.71L263.7,39.05z"/>
	<path fill="#FFFFFF" d="M151.053,146.696v21.209h-11.169v-33.203c0.727,1.213,1.521,2.389,2.38,3.524
		C144.74,141.495,147.697,144.343,151.053,146.696z"/>
</g>
<g>
	<path fill="#FFFFFF" d="M205.71,124.01h-0.03c0-0.01,0.01-0.02,0.01-0.03L205.71,124.01z"/>
</g>
<g>
	<path fill="#FFFFFF" d="M205.71,124.01h-0.03c0-0.01,0.01-0.02,0.01-0.03L205.71,124.01z"/>
</g>
<g>
	<polygon fill="#FFFFFF" points="215.255,141.603 215.25,141.603 215.25,141.594 	"/>
</g>
<path fill="#FFFFFF" d="M239.58,107.66c0.34,0,0.67,0.03,1,0.08c1.95,0.31,3.6,1.53,4.52,3.2h21.1c0.88-2.89,1.35-5.96,1.35-9.14
	c0-5.45-1.39-10.58-3.85-15.05c-0.44-0.8-0.91-1.58-1.42-2.33h-32.41l-9.41,9.41c-0.53,0.6-1.3,0.98-2.16,0.98h-9.02
	c-0.78,1.66-2.28,2.93-4.1,3.4c-0.5,0.13-1.03,0.2-1.58,0.2c-0.45,0-0.9-0.05-1.33-0.14c-2.82-0.61-4.94-3.13-4.94-6.14
	c0-0.16,0-0.31,0.01-0.46c0.24-3.26,2.95-5.82,6.26-5.82c1.84,0,3.49,0.79,4.64,2.04c0.32,0.36,0.61,0.76,0.85,1.18h8.01l9.47-9.47
	c0.25-0.25,0.54-0.44,0.85-0.58c0.4-0.22,0.86-0.34,1.35-0.34h28.58c-1.5-1.36-3.13-2.58-4.87-3.64c-1.46-0.89-3.01-1.66-4.62-2.31
	c-7.36-8.58-18.28-14.02-30.48-14.02c-4.56,0-8.94,0.76-13.02,2.16c-4.08,1.4-7.87,3.44-11.24,6c-3.86-1.58-8.09-2.46-12.52-2.46
	c-12.92,0-24.11,7.42-29.55,18.22c-0.67,1.35-1.26,2.74-1.75,4.18h13.01l4.63-4.63l1.03-1.03c-0.6-2.12-0.07-4.49,1.6-6.16
	c0.15-0.15,0.31-0.3,0.48-0.43c0.08-0.07,0.16-0.13,0.25-0.19c0.08-0.07,0.17-0.13,0.25-0.18c0.05-0.03,0.09-0.06,0.14-0.09
	c0.13-0.08,0.26-0.16,0.4-0.23c0.07-0.04,0.14-0.07,0.2-0.1c0.07-0.04,0.14-0.07,0.21-0.1c0.05-0.02,0.1-0.04,0.15-0.06
	c0.07-0.03,0.14-0.05,0.21-0.08c0.07-0.03,0.14-0.05,0.22-0.08c0.14-0.04,0.29-0.08,0.43-0.12c0.05-0.01,0.1-0.02,0.15-0.03
	c0.1-0.03,0.2-0.04,0.3-0.06c0.35-0.06,0.7-0.09,1.05-0.09c0.3,0,0.6,0.02,0.9,0.07c0.1,0.01,0.2,0.03,0.3,0.05
	c0.44,0.08,0.88,0.22,1.3,0.4c0.07,0.03,0.14,0.06,0.21,0.1c0.07,0.03,0.14,0.06,0.21,0.1c0.09,0.05,0.18,0.1,0.27,0.15
	c0.45,0.26,0.87,0.59,1.25,0.97c1.92,1.92,2.34,4.79,1.24,7.11c-0.3,0.64-0.71,1.24-1.24,1.77c-0.19,0.19-0.39,0.37-0.6,0.53
	c-0.09,0.06-0.17,0.13-0.26,0.19c-0.13,0.09-0.26,0.17-0.39,0.25c-0.09,0.05-0.18,0.1-0.27,0.15c-0.07,0.04-0.14,0.07-0.21,0.1
	c-0.07,0.04-0.14,0.07-0.21,0.1c-0.42,0.18-0.86,0.32-1.3,0.4c-0.1,0.02-0.2,0.04-0.3,0.05c-0.3,0.05-0.6,0.07-0.9,0.07
	c-0.22,0-0.45-0.01-0.67-0.04c-0.09-0.01-0.18-0.02-0.27-0.03c-0.31-0.05-0.62-0.12-0.92-0.21c-0.09-0.03-0.18-0.06-0.26-0.09
	l-6.38,6.38c-0.1,0.1-0.21,0.2-0.33,0.28c-0.15,0.11-0.32,0.21-0.49,0.29c-0.08,0.04-0.17,0.07-0.26,0.1
	c-0.02,0.01-0.05,0.02-0.09,0.03c-0.06,0.03-0.13,0.04-0.2,0.06c-0.06,0.01-0.12,0.03-0.18,0.04h-0.03
	c-0.05,0.01-0.1,0.01-0.15,0.02h-0.04c-0.05,0.01-0.1,0.01-0.14,0.01h-13.62l-4.48,4.48c-3.19,5.08-5.04,11.11-5.04,17.56
	c0,9.58,4.08,18.21,10.59,24.25c3.67,3.4,8.11,5.98,13.03,7.44h21.47c0.25-0.46,0.56-0.88,0.91-1.26c0.06-0.07,0.13-0.14,0.19-0.2
	c0.07-0.07,0.13-0.13,0.2-0.19l0.21-0.18c0.07-0.06,0.14-0.12,0.21-0.17c0.08-0.06,0.15-0.11,0.23-0.16
	c0.07-0.05,0.15-0.11,0.23-0.15c0.07-0.05,0.15-0.1,0.23-0.15c0.72-0.41,1.53-0.68,2.39-0.78c0.24-0.02,0.47-0.04,0.72-0.04
	c3.46,0,6.27,2.81,6.27,6.28c0,3.47-2.81,6.28-6.27,6.28c-2.49,0-4.64-1.45-5.66-3.55h-17.73c4.22,7.69,12.38,12.91,21.77,12.91
	c13.7,0,24.8-11.1,24.8-24.8c0-0.42-0.01-0.84-0.03-1.25v-0.01l-2.99-5.5l-5.68-10.47h-24.4c-1.19,2.74-3.91,4.65-7.09,4.65
	c-1.84,0-3.53-0.65-4.86-1.73c-0.96-0.77-1.72-1.77-2.22-2.92c-0.36-0.82-0.57-1.72-0.62-2.66c-0.01-0.14-0.01-0.27-0.01-0.41v-0.27
	c0-0.09,0.01-0.18,0.01-0.27c0.01-0.09,0.02-0.18,0.03-0.27c0.01-0.09,0.02-0.17,0.03-0.26c0.02-0.14,0.04-0.28,0.07-0.42
	c0.01-0.07,0.03-0.14,0.04-0.2c0.06-0.25,0.13-0.5,0.2-0.73c1.02-3.08,3.92-5.3,7.33-5.3c1.35,0,2.61,0.35,3.71,0.95
	c1.5,0.82,2.7,2.13,3.38,3.7c0.01,0,0.02,0.01,0.03,0.02c0.01,0,0.01,0.01,0.02,0.02c0,0.01,0.01,0.03,0.02,0.04
	c0.02,0.05,0.05,0.13,0.08,0.21c0,0.01,0,0.02,0.01,0.03c0.03,0.1,0.05,0.2,0.07,0.27c0,0.01,0.01,0.02,0.01,0.03
	c0,0.02,0.01,0.03,0.01,0.03s0.01-0.02,0.04-0.04c0.01,0,0.02-0.01,0.03-0.02c0.04-0.02,0.09-0.05,0.15-0.05s0.11,0.03,0.16,0.11
	h25.2c0.45,0.02,0.87,0.14,1.23,0.35c0.37,0.21,0.68,0.5,0.92,0.85c0.46,0.43,0.88,0.98,1.22,1.62l6.59,12.13l3.54,6.52
	c6.56-0.5,12.69-2.58,17.99-5.86c5.1-0.35,9.87-1.93,14.01-4.45c4.69-2.85,8.58-6.89,11.22-11.71c0.04-0.06,0.07-0.12,0.1-0.18
	h-18.56c-1.02,2.1-3.17,3.55-5.66,3.55c-1.45,0-2.78-0.49-3.84-1.31c-1.48-1.15-2.44-2.95-2.44-4.97
	C233.3,110.47,236.11,107.66,239.58,107.66z M205.69,123.98l0.02,0.03h-0.03C205.68,124,205.69,123.99,205.69,123.98z"/>
<path fill="#FFFFFF" d="M205.71,124.01h-0.03c0-0.01,0.01-0.02,0.01-0.03L205.71,124.01z"/>
</svg>
