<?xml version="1.0" encoding="utf-8"?>
<!-- Generator: Adobe Illustrator 16.0.0, SVG Export Plug-In . SVG Version: 6.00 Build 0)  -->
<!DOCTYPE svg PUBLIC "-//W3C//DTD SVG 1.1//EN" "http://www.w3.org/Graphics/SVG/1.1/DTD/svg11.dtd">
<svg version="1.1"
	 id="Layer_1" xmlns:dc="http://purl.org/dc/elements/1.1/" xmlns:cc="http://creativecommons.org/ns#" xmlns:rdf="http://www.w3.org/1999/02/22-rdf-syntax-ns#" xmlns:svg="http://www.w3.org/2000/svg" xmlns:sodipodi="http://sodipodi.sourceforge.net/DTD/sodipodi-0.dtd" xmlns:inkscape="http://www.inkscape.org/namespaces/inkscape" sodipodi:docname="logo.svg" inkscape:version="0.92.2 (5c3e80d, 2017-08-06)"
	 xmlns="http://www.w3.org/2000/svg" xmlns:xlink="http://www.w3.org/1999/xlink" x="0px" y="0px" width="358.482px"
	 height="475.477px" viewBox="0 0 358.482 475.477" enable-background="new 0 0 358.482 475.477" xml:space="preserve">
<polygon id="polygon11" fill="#FFFFFF" points="178.6,391.4 178.6,391.4 178.6,448.6 153.6,424 128.8,448.6 128.8,339.6 
	178.6,339.6 "/>
<g id="g15">
	<rect id="rect13" x="170.4" y="358.4" fill="#FFFFFF" width="131.8" height="22.398"/>
</g>
<g id="g19">
	<path id="path17" fill="#FFFFFF" d="M302.2,204.2V327H80.6c-1.398,1.2-3.8,5.2-3.8,14.6c0,3.802,0.4,7,1.4,9.602
		c1.4,4.2,3.6,6.2,4.8,7h30.6V380.6h-34.2L78,380.2c-1.399-0.4-14.2-4-20.2-19.8c-2.199-5.4-3.199-11.802-3.199-19
		c0-3.602,0.199-7.2,0.799-10.4c2.201-14,9-20.6,14.4-23.8c3.6-2,6.6-2.602,7.4-2.8l0.8-0.2h202v-83.8c3-1.4,5.8-3,8.6-4.802
		C293.4,212.8,298,208.8,302.2,204.2z"/>
</g>
<g id="g25">
	<path id="path21" fill="#FFFFFF" d="M302.2,28v74.2l-4.4-4c-5.398-5-11.398-9-18-12.2V50.4h-203v43c-1.4,1.6-2.6,3.199-4,4.8
		c-4.8,6.6-8.6,13.6-11.199,21.399L56,135.8h0.399L56,136.2l-0.8,1.2c-0.4,0.399-0.6,1-0.801,1.399V35.6V28.2L302.2,28z"/>
	<path id="path23" fill="#FFFFFF" d="M76.8,243.2V285.6h-22.4V219.2c1.4,2.398,3,4.8,4.801,7C64.2,232.8,70.2,238.6,76.8,243.2z"/>
</g>
<g id="g29">
	<path id="path27" fill="#FFFFFF" d="M186.2,197.8L186.2,197.8L186.2,197.8L186.2,197.8z"/>
</g>
<g id="g33">
	<path id="path31" fill="#FFFFFF" d="M186.2,197.8L186.2,197.8L186.2,197.8L186.2,197.8z"/>
</g>
<g id="g37">
	<path id="polygon35" fill="#FFFFFF" d="M205.2,233L205.2,233L205.2,233z"/>
</g>
<path id="path39" fill="#FFFFFF" d="M254,165.2c0.6,0,1.4,0,2,0.2c4,0.6,7.2,3,9,6.399h42.2c1.8-5.8,2.6-12,2.6-18.2
	c0-11-2.8-21.199-7.6-30c-0.8-1.6-1.8-3.199-2.8-4.6H234.6l-18.8,18.8c-1,1.2-2.6,2-4.398,2h-18c-1.602,3.4-4.602,5.8-8.2,6.8
	c-1,0.2-2,0.4-3.2,0.4c-0.8,0-1.8,0-2.6-0.2c-5.602-1.2-9.802-6.2-9.802-12.2c0-0.399,0-0.6,0-1C170,127,175.4,122,182.2,122
	c3.6,0,7,1.6,9.2,4c0.6,0.8,1.198,1.6,1.8,2.4h16l19-19c0.6-0.601,1-0.801,1.6-1.2c0.8-0.4,1.8-0.601,2.8-0.601h57.2
	c-3-2.8-6.2-5.199-9.8-7.199c-3-1.801-6-3.4-9.2-4.601c-14.8-17.2-36.6-28-61-28c-9.2,0-17.8,1.601-26,4.4s-15.8,6.8-22.398,12
	c-7.802-3.2-16.2-5-25-5c-25.802,0-48.2,14.8-59,36.399c-1.4,2.601-2.601,5.4-3.601,8.4h26l9.2-9.2l2-2c-1.2-4.2-0.2-9,3.2-12.399
	c0.2-0.4,0.6-0.601,1-0.801c0.2-0.199,0.398-0.199,0.6-0.399c0.2-0.2,0.4-0.2,0.602-0.4l0.199-0.2
	c0.199-0.199,0.601-0.399,0.801-0.399c0.199,0,0.199-0.2,0.398-0.2c0.2,0,0.2-0.2,0.4-0.2c0,0,0.2,0,0.398-0.2
	c0.2,0,0.2,0,0.4-0.199c0.2,0,0.2,0,0.4-0.201c0.198,0,0.6-0.199,0.8-0.199h0.2c0.198,0,0.398,0,0.6-0.2c0.6-0.2,1.4-0.2,2-0.2
	s1.2,0,1.8,0.2c0.2,0,0.4,0,0.602,0c0.8,0.2,1.8,0.399,2.6,0.8c0.2,0,0.2,0.2,0.4,0.2c0.198,0,0.198,0.2,0.398,0.2
	s0.4,0.199,0.602,0.199c1,0.601,1.8,1.201,2.6,2c3.8,3.801,4.6,9.601,2.4,14.201c-0.602,1.199-1.4,2.399-2.4,3.6
	c-0.4,0.4-0.8,0.8-1.2,1c-0.2,0.199-0.398,0.199-0.6,0.4c-0.2,0.199-0.602,0.399-0.8,0.6c-0.2,0.199-0.4,0.199-0.602,0.4
	c-0.2,0-0.2,0.199-0.398,0.199c-0.2,0-0.2,0.2-0.4,0.2c-0.8,0.399-1.8,0.601-2.6,0.8c-0.2,0-0.4,0-0.602,0.2c-0.6,0-1.2,0.2-1.8,0.2
	c-0.4,0-1,0-1.4,0c-0.198,0-0.398,0-0.6,0c-0.6-0.2-1.2-0.2-1.8-0.4c-0.2,0-0.4-0.199-0.602-0.199l-12.8,12.799
	c-0.2,0.201-0.398,0.4-0.6,0.601s-0.602,0.399-1,0.601c-0.2,0-0.4,0.199-0.602,0.199c0,0,0,0-0.198,0c-0.2,0-0.2,0-0.4,0.2
	c-0.2,0-0.2,0-0.4,0l0,0H102.4l0,0h-0.2H75l-9,9C59.601,155,56,167,56,180c0,19.199,8.2,36.399,21.2,48.6
	c7.398,6.801,16.2,12,26,14.801h43c0.6-1,1.2-1.801,1.8-2.601c0.2-0.2,0.2-0.2,0.4-0.399c0.199-0.2,0.199-0.2,0.399-0.4l0.4-0.4
	c0.2-0.199,0.2-0.199,0.398-0.398c0.2-0.2,0.2-0.2,0.4-0.4c0.2,0,0.4-0.2,0.4-0.398c0.198,0,0.398-0.2,0.398-0.2
	c1.4-0.8,3-1.4,4.8-1.602c0.4,0,1,0,1.4,0c7,0,12.6,5.602,12.6,12.602s-5.6,12.6-12.6,12.6c-5,0-9.2-3-11.4-7H110.2
	c8.398,15.4,24.8,25.8,43.6,25.8c27.4,0,49.602-22.199,49.602-49.6c0-0.8,0-1.601,0-2.601l0,0l-6-11L186,196.4h-48.8
	c-2.4,5.398-7.8,9.199-14.2,9.199c-3.6,0-7-1.199-9.8-3.4c-2-1.6-3.4-3.6-4.4-5.799c-0.8-1.602-1.2-3.4-1.2-5.4c0-0.2,0-0.6,0-0.8
	V189.6c0-0.199,0-0.399,0-0.6s0-0.4,0-0.6c0-0.2,0-0.4,0-0.601s0-0.6,0.2-0.8c0-0.2,0-0.2,0-0.4c0.2-0.6,0.2-1,0.4-1.399
	c2-6.2,7.8-10.601,14.6-10.601c2.602,0,5.2,0.801,7.4,2c3,1.601,5.398,4.2,6.8,7.4l0,0l0,0l0,0c0,0.2,0.2,0.2,0.2,0.4l0,0
	c0,0.199,0,0.399,0.2,0.6l0,0l0,0l0,0l0,0c0,0,0.198,0,0.398,0s0.2,0,0.4,0.2h50.4c1,0,1.802,0.2,2.4,0.8c0.8,0.4,1.4,1,1.8,1.6
	c1,0.801,1.8,2,2.4,3.2l13.2,24.2l7,13c13.198-1,25.398-5.2,36-11.8c10.198-0.8,19.8-3.8,28-9c9.398-5.8,17.198-13.8,22.398-23.4
	c0-0.2,0.2-0.2,0.2-0.399h-37.2c-2,4.199-6.398,7-11.398,7c-3,0-5.602-1-7.602-2.601c-3-2.2-4.8-6-4.8-10
	C241.4,170.8,247,165.2,254,165.2z M186.2,197.8L186.2,197.8L186.2,197.8L186.2,197.8z"/>
<path id="path41" fill="#FFFFFF" d="M186.2,197.8L186.2,197.8L186.2,197.8L186.2,197.8z"/>
</svg>
