<?xml version="1.0" encoding="UTF-8" standalone="no"?>
<!-- Generator: Adobe Illustrator 19.0.0, SVG Export Plug-In . SVG Version: 6.00 Build 0)  -->

<svg
   xmlns:dc="http://purl.org/dc/elements/1.1/"
   xmlns:cc="http://creativecommons.org/ns#"
   xmlns:rdf="http://www.w3.org/1999/02/22-rdf-syntax-ns#"
   xmlns:svg="http://www.w3.org/2000/svg"
   xmlns="http://www.w3.org/2000/svg"
   xmlns:sodipodi="http://sodipodi.sourceforge.net/DTD/sodipodi-0.dtd"
   xmlns:inkscape="http://www.inkscape.org/namespaces/inkscape"
   version="1.0"
   id="Layer_1"
   x="0px"
   y="0px"
   viewBox="0 0 400 400"
   style="enable-background:new 0 0 400 400;"
   xml:space="preserve"
   sodipodi:docname="logo.svg"
   inkscape:version="0.92.2 (5c3e80d, 2017-08-06)"><metadata
     id="metadata48"><rdf:RDF><cc:Work
         rdf:about=""><dc:format>image/svg+xml</dc:format><dc:type
           rdf:resource="http://purl.org/dc/dcmitype/StillImage" /><dc:title></dc:title></cc:Work></rdf:RDF></metadata><defs
     id="defs46" /><sodipodi:namedview
     pagecolor="#ffffff"
     bordercolor="#666666"
     borderopacity="1"
     objecttolerance="10"
     gridtolerance="10"
     guidetolerance="10"
     inkscape:pageopacity="0"
     inkscape:pageshadow="2"
     inkscape:window-width="1366"
     inkscape:window-height="715"
     id="namedview44"
     showgrid="false"
     inkscape:zoom="0.59"
     inkscape:cx="200"
     inkscape:cy="150.85978"
     inkscape:window-x="-8"
     inkscape:window-y="-8"
     inkscape:window-maximized="1"
     inkscape:current-layer="Layer_1" /><style
     type="text/css"
     id="style2">
	.st0{fill:url(#SVGID_1_);}
	.st1{fill:#FFFFFF;}
</style><linearGradient
     id="SVGID_1_"
     gradientUnits="userSpaceOnUse"
     x1="351.1091"
     y1="-429.9447"
     x2="39.8189"
     y2="868.3635"
     gradientTransform="translate(1.6949152e-6,-1.0169492e-6)"><stop
       offset="0"
       style="stop-color:#00A0C6"
       id="stop4" /><stop
       offset="1"
       style="stop-color:#13007C"
       id="stop6" /></linearGradient><polygon
     class="st1"
     points="198.3,298.7 198.3,298.7 198.3,327.3 185.8,315 173.4,327.3 173.4,272.8 198.3,272.8 "
     id="polygon11" /><g
     id="g15"><rect
       x="194.2"
       y="282.2"
       class="st1"
       width="65.9"
       height="11.2"
       id="rect13" /></g><g
     id="g19"><path
       class="st1"
       d="M260.1,205.1v61.4H149.3c-0.7,0.6-1.9,2.6-1.9,7.3c0,1.9,0.2,3.5,0.7,4.8c0.7,2.1,1.8,3.1,2.4,3.5h15.3v11.2   h-17.1l-0.7-0.2c-0.7-0.2-7.1-2-10.1-9.9c-1.1-2.7-1.6-5.9-1.6-9.5c0-1.8,0.1-3.6,0.4-5.2c1.1-7,4.5-10.3,7.2-11.9   c1.8-1,3.3-1.3,3.7-1.4l0.4-0.1h101v-41.9c1.5-0.7,2.9-1.5,4.3-2.4C255.7,209.4,258,207.4,260.1,205.1z"
       id="path17" /></g><g
     id="g25"><path
       class="st1"
       d="M260.1,117v37.1l-2.2-2c-2.7-2.5-5.7-4.5-9-6.1v-17.8H147.4v21.5c-0.7,0.8-1.3,1.6-2,2.4   c-2.4,3.3-4.3,6.8-5.6,10.7l-2.8,8.1h0.2l-0.2,0.2l-0.4,0.6c-0.2,0.2-0.3,0.5-0.4,0.7v-51.6l0-3.7L260.1,117z"
       id="path21" /><path
       class="st1"
       d="M147.4,224.6v21.2h-11.2v-33.2c0.7,1.2,1.5,2.4,2.4,3.5C141.1,219.4,144.1,222.3,147.4,224.6z"
       id="path23" /></g><g
     id="g29"><path
       class="st1"
       d="M202.1,201.9L202.1,201.9C202.1,201.9,202.1,201.9,202.1,201.9L202.1,201.9z"
       id="path27" /></g><g
     id="g33"><path
       class="st1"
       d="M202.1,201.9L202.1,201.9C202.1,201.9,202.1,201.9,202.1,201.9L202.1,201.9z"
       id="path31" /></g><g
     id="g37"><polygon
       class="st1"
       points="211.6,219.5 211.6,219.5 211.6,219.5  "
       id="polygon35" /></g><path
     class="st1"
     d="M236,185.6c0.3,0,0.7,0,1,0.1c2,0.3,3.6,1.5,4.5,3.2h21.1c0.9-2.9,1.3-6,1.3-9.1c0-5.5-1.4-10.6-3.8-15  c-0.4-0.8-0.9-1.6-1.4-2.3h-32.4l-9.4,9.4c-0.5,0.6-1.3,1-2.2,1h-9c-0.8,1.7-2.3,2.9-4.1,3.4c-0.5,0.1-1,0.2-1.6,0.2  c-0.4,0-0.9,0-1.3-0.1c-2.8-0.6-4.9-3.1-4.9-6.1c0-0.2,0-0.3,0-0.5c0.2-3.3,2.9-5.8,6.3-5.8c1.8,0,3.5,0.8,4.6,2  c0.3,0.4,0.6,0.8,0.9,1.2h8l9.5-9.5c0.3-0.3,0.5-0.4,0.8-0.6c0.4-0.2,0.9-0.3,1.4-0.3h28.6c-1.5-1.4-3.1-2.6-4.9-3.6  c-1.5-0.9-3-1.7-4.6-2.3c-7.4-8.6-18.3-14-30.5-14c-4.6,0-8.9,0.8-13,2.2c-4.1,1.4-7.9,3.4-11.2,6c-3.9-1.6-8.1-2.5-12.5-2.5  c-12.9,0-24.1,7.4-29.5,18.2c-0.7,1.3-1.3,2.7-1.8,4.2h13l4.6-4.6l1-1c-0.6-2.1-0.1-4.5,1.6-6.2c0.1-0.2,0.3-0.3,0.5-0.4  c0.1-0.1,0.2-0.1,0.3-0.2c0.1-0.1,0.2-0.1,0.3-0.2c0,0,0.1-0.1,0.1-0.1c0.1-0.1,0.3-0.2,0.4-0.2c0.1,0,0.1-0.1,0.2-0.1  c0.1,0,0.1-0.1,0.2-0.1c0,0,0.1,0,0.2-0.1c0.1,0,0.1,0,0.2-0.1c0.1,0,0.1,0,0.2-0.1c0.1,0,0.3-0.1,0.4-0.1c0,0,0.1,0,0.1,0  c0.1,0,0.2,0,0.3-0.1c0.3-0.1,0.7-0.1,1-0.1c0.3,0,0.6,0,0.9,0.1c0.1,0,0.2,0,0.3,0c0.4,0.1,0.9,0.2,1.3,0.4c0.1,0,0.1,0.1,0.2,0.1  c0.1,0,0.1,0.1,0.2,0.1c0.1,0,0.2,0.1,0.3,0.1c0.5,0.3,0.9,0.6,1.3,1c1.9,1.9,2.3,4.8,1.2,7.1c-0.3,0.6-0.7,1.2-1.2,1.8  c-0.2,0.2-0.4,0.4-0.6,0.5c-0.1,0.1-0.2,0.1-0.3,0.2c-0.1,0.1-0.3,0.2-0.4,0.3c-0.1,0.1-0.2,0.1-0.3,0.2c-0.1,0-0.1,0.1-0.2,0.1  c-0.1,0-0.1,0.1-0.2,0.1c-0.4,0.2-0.9,0.3-1.3,0.4c-0.1,0-0.2,0-0.3,0.1c-0.3,0-0.6,0.1-0.9,0.1c-0.2,0-0.5,0-0.7,0  c-0.1,0-0.2,0-0.3,0c-0.3-0.1-0.6-0.1-0.9-0.2c-0.1,0-0.2-0.1-0.3-0.1l-6.4,6.4c-0.1,0.1-0.2,0.2-0.3,0.3c-0.1,0.1-0.3,0.2-0.5,0.3  c-0.1,0-0.2,0.1-0.3,0.1c0,0,0,0-0.1,0c-0.1,0-0.1,0-0.2,0.1c-0.1,0-0.1,0-0.2,0h0c0,0-0.1,0-0.1,0h0c0,0-0.1,0-0.1,0h-13.6  l-4.5,4.5c-3.2,5.1-5,11.1-5,17.6c0,9.6,4.1,18.2,10.6,24.3c3.7,3.4,8.1,6,13,7.4h21.5c0.3-0.5,0.6-0.9,0.9-1.3  c0.1-0.1,0.1-0.1,0.2-0.2c0.1-0.1,0.1-0.1,0.2-0.2l0.2-0.2c0.1-0.1,0.1-0.1,0.2-0.2c0.1-0.1,0.1-0.1,0.2-0.2c0.1,0,0.2-0.1,0.2-0.2  c0.1,0,0.2-0.1,0.2-0.1c0.7-0.4,1.5-0.7,2.4-0.8c0.2,0,0.5,0,0.7,0c3.5,0,6.3,2.8,6.3,6.3c0,3.5-2.8,6.3-6.3,6.3  c-2.5,0-4.6-1.5-5.7-3.5h-17.7c4.2,7.7,12.4,12.9,21.8,12.9c13.7,0,24.8-11.1,24.8-24.8c0-0.4,0-0.8,0-1.3v0l-3-5.5l-5.7-10.5h-24.4  c-1.2,2.7-3.9,4.6-7.1,4.6c-1.8,0-3.5-0.6-4.9-1.7c-1-0.8-1.7-1.8-2.2-2.9c-0.4-0.8-0.6-1.7-0.6-2.7c0-0.1,0-0.3,0-0.4v-0.3  c0-0.1,0-0.2,0-0.3c0-0.1,0-0.2,0-0.3c0-0.1,0-0.2,0-0.3c0-0.1,0-0.3,0.1-0.4c0-0.1,0-0.1,0-0.2c0.1-0.3,0.1-0.5,0.2-0.7  c1-3.1,3.9-5.3,7.3-5.3c1.3,0,2.6,0.4,3.7,1c1.5,0.8,2.7,2.1,3.4,3.7c0,0,0,0,0,0c0,0,0,0,0,0c0,0,0,0,0,0c0,0.1,0.1,0.1,0.1,0.2  c0,0,0,0,0,0c0,0.1,0,0.2,0.1,0.3c0,0,0,0,0,0c0,0,0,0,0,0s0,0,0,0c0,0,0,0,0,0c0,0,0.1,0,0.2,0s0.1,0,0.2,0.1h25.2  c0.5,0,0.9,0.1,1.2,0.4c0.4,0.2,0.7,0.5,0.9,0.8c0.5,0.4,0.9,1,1.2,1.6l6.6,12.1l3.5,6.5c6.6-0.5,12.7-2.6,18-5.9  c5.1-0.4,9.9-1.9,14-4.5c4.7-2.9,8.6-6.9,11.2-11.7c0-0.1,0.1-0.1,0.1-0.2h-18.6c-1,2.1-3.2,3.5-5.7,3.5c-1.5,0-2.8-0.5-3.8-1.3  c-1.5-1.1-2.4-3-2.4-5C229.7,188.4,232.5,185.6,236,185.6z M202.1,201.9L202.1,201.9L202.1,201.9  C202.1,201.9,202.1,201.9,202.1,201.9z"
     id="path39" /><path
     class="st1"
     d="M202.1,201.9L202.1,201.9C202.1,201.9,202.1,201.9,202.1,201.9L202.1,201.9z"
     id="path41" /></svg>